<svg width="24" height="24" viewBox="0 0 24 24" fill="none" xmlns="http://www.w3.org/2000/svg">
<path fill-rule="evenodd" clip-rule="evenodd" d="M24 12V0.666667C24 0.298477 23.7312 0 23.3996 0H20.3932C20.2294 0 20.0726 0.074376 19.9594 0.205874L15.1284 5.81486C14.7543 6.24927 14.0942 5.95519 14.0942 5.35407V0.666667C14.0942 0.298477 13.8254 0 13.4939 0H10.4766C10.3139 0 10.1583 0.073277 10.0452 0.203065L0.168927 11.5364C-0.0563084 11.7949 -0.0563094 12.2051 0.168926 12.4636L10.0452 23.7969C10.1583 23.9267 10.3139 24 10.4766 24H13.4939C13.8254 24 14.0942 23.7015 14.0942 23.3333V18.6459C14.0942 18.0448 14.7543 17.7507 15.1284 18.1851L19.9594 23.7941C20.0726 23.9256 20.2294 24 20.3932 24H23.3996C23.7312 24 24 23.7015 24 23.3333V12ZM20.3979 12.6667C20.3979 12.2985 20.1291 12 19.7975 12H16.1905C15.662 12 15.3914 12.7034 15.7566 13.1275L19.3637 17.315C19.7379 17.7494 20.3979 17.4553 20.3979 16.8542V12.6667ZM10.4921 12.6667C10.4921 12.2985 10.2233 12 9.89175 12H6.19414C5.66401 12 5.39406 12.7073 5.76275 13.1303L9.46035 17.3728C9.83562 17.8034 10.4921 17.5084 10.4921 16.9092V12.6667Z" fill="white"/>
</svg>
