<svg width="601" height="305" viewBox="0 0 601 305" fill="none" xmlns="http://www.w3.org/2000/svg">
<path d="M0.09375 12.25C0.09375 7.83173 3.67547 4.25 8.09375 4.25H92.0938C96.512 4.25 100.094 7.83172 100.094 12.25V204.25H8.09375C3.67547 204.25 0.09375 200.668 0.09375 196.25V12.25Z" fill="#FF6F61"/>
<path d="M500.094 12.25C500.094 7.83173 503.675 4.25 508.094 4.25H592.094C596.512 4.25 600.094 7.83172 600.094 12.25V196.25C600.094 200.668 596.512 204.25 592.094 204.25H500.094V12.25Z" fill="#FF6F61"/>
<path fill-rule="evenodd" clip-rule="evenodd" d="M209.434 253.152C184.999 277.933 151.655 301.272 108.094 303.848C103.683 304.109 100.094 300.502 100.094 296.084V204.084C110.09 204.084 121.916 199.483 138.228 182.94C155.123 165.805 170.703 142.209 189.093 114.007C189.649 113.153 190.211 112.292 190.776 111.424C207.062 86.43 227.015 55.8083 250.167 34.3216C262.748 22.645 278.758 11.1914 298.582 5.10471C319.436 -1.29834 341.421 -0.788774 363.124 7.07365L402.667 21.399C406.825 22.9054 408.972 27.4998 407.46 31.6559L393.08 71.1792C383.372 97.8635 390.053 129.878 412.604 158.139C435.33 186.619 468.821 204.084 500.094 204.084V296.084C500.094 300.502 496.507 304.101 492.093 303.914C428.539 301.211 371.224 266.61 334.439 220.511C317.332 199.072 303.617 173.734 295.806 146.292C294.86 142.968 290.433 142.143 288.492 145.002C283.67 152.104 278.501 159.972 272.859 168.626C272.362 169.387 271.862 170.154 271.359 170.927C254.633 196.589 234.02 228.218 209.434 253.152Z" fill="#FF6F61"/>
</svg>
